<svg width="1920" height="250" viewBox="0 0 1920 250" fill="none" xmlns="http://www.w3.org/2000/svg">
<ellipse cx="159.814" cy="14.5349" rx="14.5349" ry="14.5349" fill="black"/>
<ellipse cx="217.953" cy="14.5349" rx="14.5349" ry="14.5349" fill="black"/>
<ellipse cx="159.814" cy="102.907" rx="14.5349" ry="14.5349" fill="black"/>
<ellipse cx="159.814" cy="191.279" rx="14.5349" ry="14.5349" fill="black"/>
<ellipse cx="217.953" cy="102.907" rx="14.5349" ry="14.5349" fill="black"/>
<ellipse cx="217.953" cy="191.279" rx="14.5349" ry="14.5349" fill="black"/>
<ellipse cx="101.675" cy="14.5349" rx="14.5349" ry="14.5349" fill="black"/>
<ellipse cx="43.5349" cy="14.5349" rx="14.5349" ry="14.5349" fill="black"/>
<ellipse cx="101.675" cy="102.907" rx="14.5349" ry="14.5349" fill="black"/>
<ellipse cx="101.675" cy="191.279" rx="14.5349" ry="14.5349" fill="black"/>
<ellipse cx="43.5349" cy="102.907" rx="14.5349" ry="14.5349" fill="black"/>
<ellipse cx="43.5349" cy="191.279" rx="14.5349" ry="14.5349" fill="black"/>
<ellipse cx="130.744" cy="58.7207" rx="14.5349" ry="14.5349" fill="black"/>
<ellipse cx="130.744" cy="147.093" rx="14.5349" ry="14.5349" fill="black"/>
<ellipse cx="130.744" cy="235.465" rx="14.5349" ry="14.5349" fill="black"/>
<ellipse cx="72.6047" cy="58.7207" rx="14.5349" ry="14.5349" fill="black"/>
<ellipse cx="72.6047" cy="147.093" rx="14.5349" ry="14.5349" fill="black"/>
<ellipse cx="72.6047" cy="235.465" rx="14.5349" ry="14.5349" fill="black"/>
<ellipse cx="188.884" cy="58.7207" rx="14.5349" ry="14.5349" fill="black"/>
<ellipse cx="247.023" cy="58.7207" rx="14.5349" ry="14.5349" fill="black"/>
<ellipse cx="188.884" cy="147.093" rx="14.5349" ry="14.5349" fill="black"/>
<ellipse cx="188.884" cy="235.465" rx="14.5349" ry="14.5349" fill="black"/>
<ellipse cx="247.023" cy="147.093" rx="14.5349" ry="14.5349" fill="black"/>
<ellipse cx="247.023" cy="235.465" rx="14.5349" ry="14.5349" fill="black"/>
<ellipse cx="857.489" cy="14.5349" rx="14.5349" ry="14.5349" fill="black"/>
<ellipse cx="915.628" cy="14.5349" rx="14.5349" ry="14.5349" fill="black"/>
<ellipse cx="857.489" cy="102.907" rx="14.5349" ry="14.5349" fill="black"/>
<ellipse cx="857.489" cy="191.279" rx="14.5349" ry="14.5349" fill="black"/>
<ellipse cx="915.628" cy="102.907" rx="14.5349" ry="14.5349" fill="black"/>
<ellipse cx="915.628" cy="191.279" rx="14.5349" ry="14.5349" fill="black"/>
<ellipse cx="799.349" cy="14.5349" rx="14.5349" ry="14.5349" fill="black"/>
<ellipse cx="741.21" cy="14.5349" rx="14.5349" ry="14.5349" fill="black"/>
<ellipse cx="799.349" cy="102.907" rx="14.5349" ry="14.5349" fill="black"/>
<ellipse cx="799.349" cy="191.279" rx="14.5349" ry="14.5349" fill="black"/>
<ellipse cx="741.21" cy="102.907" rx="14.5349" ry="14.5349" fill="black"/>
<ellipse cx="741.21" cy="191.279" rx="14.5349" ry="14.5349" fill="black"/>
<ellipse cx="828.419" cy="58.7207" rx="14.5349" ry="14.5349" fill="black"/>
<ellipse cx="828.419" cy="147.093" rx="14.5349" ry="14.5349" fill="black"/>
<ellipse cx="828.419" cy="235.465" rx="14.5349" ry="14.5349" fill="black"/>
<ellipse cx="770.28" cy="58.7207" rx="14.5349" ry="14.5349" fill="black"/>
<ellipse cx="770.28" cy="147.093" rx="14.5349" ry="14.5349" fill="black"/>
<ellipse cx="770.28" cy="235.465" rx="14.5349" ry="14.5349" fill="black"/>
<ellipse cx="886.559" cy="58.7207" rx="14.5349" ry="14.5349" fill="black"/>
<ellipse cx="944.698" cy="58.7207" rx="14.5349" ry="14.5349" fill="black"/>
<ellipse cx="886.559" cy="147.093" rx="14.5349" ry="14.5349" fill="black"/>
<ellipse cx="886.559" cy="235.465" rx="14.5349" ry="14.5349" fill="black"/>
<ellipse cx="944.698" cy="147.093" rx="14.5349" ry="14.5349" fill="black"/>
<ellipse cx="944.698" cy="235.465" rx="14.5349" ry="14.5349" fill="black"/>
<ellipse cx="392.372" cy="14.5349" rx="14.5349" ry="14.5349" fill="black"/>
<ellipse cx="450.512" cy="14.5349" rx="14.5349" ry="14.5349" fill="black"/>
<ellipse cx="392.372" cy="102.907" rx="14.5349" ry="14.5349" fill="black"/>
<ellipse cx="392.372" cy="191.279" rx="14.5349" ry="14.5349" fill="black"/>
<ellipse cx="450.512" cy="102.907" rx="14.5349" ry="14.5349" fill="black"/>
<ellipse cx="450.512" cy="191.279" rx="14.5349" ry="14.5349" fill="black"/>
<ellipse cx="334.233" cy="14.5349" rx="14.5349" ry="14.5349" fill="black"/>
<ellipse cx="276.093" cy="14.5349" rx="14.5349" ry="14.5349" fill="black"/>
<ellipse cx="334.233" cy="102.907" rx="14.5349" ry="14.5349" fill="black"/>
<ellipse cx="334.233" cy="191.279" rx="14.5349" ry="14.5349" fill="black"/>
<ellipse cx="276.093" cy="102.907" rx="14.5349" ry="14.5349" fill="black"/>
<ellipse cx="276.093" cy="191.279" rx="14.5349" ry="14.5349" fill="black"/>
<ellipse cx="363.303" cy="58.7207" rx="14.5349" ry="14.5349" fill="black"/>
<ellipse cx="363.303" cy="147.093" rx="14.5349" ry="14.5349" fill="black"/>
<ellipse cx="363.303" cy="235.465" rx="14.5349" ry="14.5349" fill="black"/>
<ellipse cx="305.163" cy="58.7207" rx="14.5349" ry="14.5349" fill="black"/>
<ellipse cx="305.163" cy="147.093" rx="14.5349" ry="14.5349" fill="black"/>
<ellipse cx="305.163" cy="235.465" rx="14.5349" ry="14.5349" fill="black"/>
<ellipse cx="421.442" cy="58.7207" rx="14.5349" ry="14.5349" fill="black"/>
<ellipse cx="479.582" cy="58.7207" rx="14.5349" ry="14.5349" fill="black"/>
<ellipse cx="421.442" cy="147.093" rx="14.5349" ry="14.5349" fill="black"/>
<ellipse cx="421.442" cy="235.465" rx="14.5349" ry="14.5349" fill="black"/>
<ellipse cx="479.582" cy="147.093" rx="14.5349" ry="14.5349" fill="black"/>
<ellipse cx="479.582" cy="235.465" rx="14.5349" ry="14.5349" fill="black"/>
<ellipse cx="1090.05" cy="14.5349" rx="14.5349" ry="14.5349" fill="black"/>
<ellipse cx="1148.19" cy="14.5349" rx="14.5349" ry="14.5349" fill="black"/>
<ellipse cx="1090.05" cy="102.907" rx="14.5349" ry="14.5349" fill="black"/>
<ellipse cx="1090.05" cy="191.279" rx="14.5349" ry="14.5349" fill="black"/>
<ellipse cx="1148.19" cy="102.907" rx="14.5349" ry="14.5349" fill="black"/>
<ellipse cx="1148.19" cy="191.279" rx="14.5349" ry="14.5349" fill="black"/>
<ellipse cx="1031.91" cy="14.5349" rx="14.5349" ry="14.5349" fill="black"/>
<ellipse cx="973.768" cy="14.5349" rx="14.5349" ry="14.5349" fill="black"/>
<ellipse cx="1031.91" cy="102.907" rx="14.5349" ry="14.5349" fill="black"/>
<ellipse cx="1031.91" cy="191.279" rx="14.5349" ry="14.5349" fill="black"/>
<ellipse cx="973.768" cy="102.907" rx="14.5349" ry="14.5349" fill="black"/>
<ellipse cx="973.768" cy="191.279" rx="14.5349" ry="14.5349" fill="black"/>
<ellipse cx="1060.98" cy="58.7207" rx="14.5349" ry="14.5349" fill="black"/>
<ellipse cx="1060.98" cy="147.093" rx="14.5349" ry="14.5349" fill="black"/>
<ellipse cx="1060.98" cy="235.465" rx="14.5349" ry="14.5349" fill="black"/>
<ellipse cx="1002.84" cy="58.7207" rx="14.5349" ry="14.5349" fill="black"/>
<ellipse cx="1002.84" cy="147.093" rx="14.5349" ry="14.5349" fill="black"/>
<ellipse cx="1002.84" cy="235.465" rx="14.5349" ry="14.5349" fill="black"/>
<ellipse cx="1119.12" cy="58.7207" rx="14.5349" ry="14.5349" fill="black"/>
<ellipse cx="1177.26" cy="58.7207" rx="14.5349" ry="14.5349" fill="black"/>
<ellipse cx="1119.12" cy="147.093" rx="14.5349" ry="14.5349" fill="black"/>
<ellipse cx="1119.12" cy="235.465" rx="14.5349" ry="14.5349" fill="black"/>
<ellipse cx="1177.26" cy="147.093" rx="14.5349" ry="14.5349" fill="black"/>
<ellipse cx="1177.26" cy="235.465" rx="14.5349" ry="14.5349" fill="black"/>
<ellipse cx="1555.16" cy="14.5349" rx="14.5349" ry="14.5349" fill="black"/>
<ellipse cx="1613.3" cy="14.5349" rx="14.5349" ry="14.5349" fill="black"/>
<ellipse cx="1555.16" cy="102.907" rx="14.5349" ry="14.5349" fill="black"/>
<ellipse cx="1555.16" cy="191.279" rx="14.5349" ry="14.5349" fill="black"/>
<ellipse cx="1613.3" cy="102.907" rx="14.5349" ry="14.5349" fill="black"/>
<ellipse cx="1613.3" cy="191.279" rx="14.5349" ry="14.5349" fill="black"/>
<ellipse cx="1497.02" cy="14.5349" rx="14.5349" ry="14.5349" fill="black"/>
<ellipse cx="1438.88" cy="14.5349" rx="14.5349" ry="14.5349" fill="black"/>
<ellipse cx="1497.02" cy="102.907" rx="14.5349" ry="14.5349" fill="black"/>
<ellipse cx="1497.02" cy="191.279" rx="14.5349" ry="14.5349" fill="black"/>
<ellipse cx="1438.88" cy="102.907" rx="14.5349" ry="14.5349" fill="black"/>
<ellipse cx="1438.88" cy="191.279" rx="14.5349" ry="14.5349" fill="black"/>
<ellipse cx="1526.09" cy="58.7207" rx="14.5349" ry="14.5349" fill="black"/>
<ellipse cx="1526.09" cy="147.093" rx="14.5349" ry="14.5349" fill="black"/>
<ellipse cx="1526.09" cy="235.465" rx="14.5349" ry="14.5349" fill="black"/>
<ellipse cx="1467.95" cy="58.7207" rx="14.5349" ry="14.5349" fill="black"/>
<ellipse cx="1467.95" cy="147.093" rx="14.5349" ry="14.5349" fill="black"/>
<ellipse cx="1467.95" cy="235.465" rx="14.5349" ry="14.5349" fill="black"/>
<ellipse cx="1584.23" cy="58.7207" rx="14.5349" ry="14.5349" fill="black"/>
<ellipse cx="1642.37" cy="58.7207" rx="14.5349" ry="14.5349" fill="black"/>
<ellipse cx="1584.23" cy="147.093" rx="14.5349" ry="14.5349" fill="black"/>
<ellipse cx="1584.23" cy="235.465" rx="14.5349" ry="14.5349" fill="black"/>
<ellipse cx="1642.37" cy="147.093" rx="14.5349" ry="14.5349" fill="black"/>
<ellipse cx="1642.37" cy="235.465" rx="14.5349" ry="14.5349" fill="black"/>
<ellipse cx="624.93" cy="14.5349" rx="14.5349" ry="14.5349" fill="black"/>
<ellipse cx="683.07" cy="14.5349" rx="14.5349" ry="14.5349" fill="black"/>
<ellipse cx="624.93" cy="102.907" rx="14.5349" ry="14.5349" fill="black"/>
<ellipse cx="624.93" cy="191.279" rx="14.5349" ry="14.5349" fill="black"/>
<ellipse cx="683.07" cy="102.907" rx="14.5349" ry="14.5349" fill="black"/>
<ellipse cx="683.07" cy="191.279" rx="14.5349" ry="14.5349" fill="black"/>
<ellipse cx="566.791" cy="14.5349" rx="14.5349" ry="14.5349" fill="black"/>
<ellipse cx="508.652" cy="14.5349" rx="14.5349" ry="14.5349" fill="black"/>
<ellipse cx="566.791" cy="102.907" rx="14.5349" ry="14.5349" fill="black"/>
<ellipse cx="566.791" cy="191.279" rx="14.5349" ry="14.5349" fill="black"/>
<ellipse cx="508.652" cy="102.907" rx="14.5349" ry="14.5349" fill="black"/>
<ellipse cx="508.652" cy="191.279" rx="14.5349" ry="14.5349" fill="black"/>
<ellipse cx="595.861" cy="58.7207" rx="14.5349" ry="14.5349" fill="black"/>
<ellipse cx="595.861" cy="147.093" rx="14.5349" ry="14.5349" fill="black"/>
<ellipse cx="595.861" cy="235.465" rx="14.5349" ry="14.5349" fill="black"/>
<ellipse cx="537.721" cy="58.7207" rx="14.5349" ry="14.5349" fill="black"/>
<ellipse cx="537.721" cy="147.093" rx="14.5349" ry="14.5349" fill="black"/>
<ellipse cx="537.721" cy="235.465" rx="14.5349" ry="14.5349" fill="black"/>
<ellipse cx="654.001" cy="58.7207" rx="14.5349" ry="14.5349" fill="black"/>
<ellipse cx="712.14" cy="58.7207" rx="14.5349" ry="14.5349" fill="black"/>
<ellipse cx="654.001" cy="147.093" rx="14.5349" ry="14.5349" fill="black"/>
<ellipse cx="654.001" cy="235.465" rx="14.5349" ry="14.5349" fill="black"/>
<ellipse cx="712.14" cy="147.093" rx="14.5349" ry="14.5349" fill="black"/>
<ellipse cx="712.14" cy="235.465" rx="14.5349" ry="14.5349" fill="black"/>
<ellipse cx="1322.61" cy="14.5349" rx="14.5349" ry="14.5349" fill="black"/>
<ellipse cx="1380.74" cy="14.5349" rx="14.5349" ry="14.5349" fill="black"/>
<ellipse cx="1322.61" cy="102.907" rx="14.5349" ry="14.5349" fill="black"/>
<ellipse cx="1322.61" cy="191.279" rx="14.5349" ry="14.5349" fill="black"/>
<ellipse cx="1380.74" cy="102.907" rx="14.5349" ry="14.5349" fill="black"/>
<ellipse cx="1380.74" cy="191.279" rx="14.5349" ry="14.5349" fill="black"/>
<ellipse cx="1264.47" cy="14.5349" rx="14.5349" ry="14.5349" fill="black"/>
<ellipse cx="1206.33" cy="14.5349" rx="14.5349" ry="14.5349" fill="black"/>
<ellipse cx="1264.47" cy="102.907" rx="14.5349" ry="14.5349" fill="black"/>
<ellipse cx="1264.47" cy="191.279" rx="14.5349" ry="14.5349" fill="black"/>
<ellipse cx="1206.33" cy="102.907" rx="14.5349" ry="14.5349" fill="black"/>
<ellipse cx="1206.33" cy="191.279" rx="14.5349" ry="14.5349" fill="black"/>
<ellipse cx="1293.54" cy="58.7207" rx="14.5349" ry="14.5349" fill="black"/>
<ellipse cx="1293.54" cy="147.093" rx="14.5349" ry="14.5349" fill="black"/>
<ellipse cx="1293.54" cy="235.465" rx="14.5349" ry="14.5349" fill="black"/>
<ellipse cx="1235.4" cy="58.7207" rx="14.5349" ry="14.5349" fill="black"/>
<ellipse cx="1235.4" cy="147.093" rx="14.5349" ry="14.5349" fill="black"/>
<ellipse cx="1235.4" cy="235.465" rx="14.5349" ry="14.5349" fill="black"/>
<ellipse cx="1351.68" cy="58.7207" rx="14.5349" ry="14.5349" fill="black"/>
<ellipse cx="1409.81" cy="58.7207" rx="14.5349" ry="14.5349" fill="black"/>
<ellipse cx="1351.68" cy="147.093" rx="14.5349" ry="14.5349" fill="black"/>
<ellipse cx="1351.68" cy="235.465" rx="14.5349" ry="14.5349" fill="black"/>
<ellipse cx="1409.81" cy="147.093" rx="14.5349" ry="14.5349" fill="black"/>
<ellipse cx="1409.81" cy="235.465" rx="14.5349" ry="14.5349" fill="black"/>
<ellipse cx="1787.72" cy="14.5349" rx="14.5349" ry="14.5349" fill="black"/>
<ellipse cx="1845.86" cy="14.5349" rx="14.5349" ry="14.5349" fill="black"/>
<ellipse cx="1787.72" cy="102.907" rx="14.5349" ry="14.5349" fill="black"/>
<ellipse cx="1787.72" cy="191.279" rx="14.5349" ry="14.5349" fill="black"/>
<ellipse cx="1845.86" cy="102.907" rx="14.5349" ry="14.5349" fill="black"/>
<ellipse cx="1845.86" cy="191.279" rx="14.5349" ry="14.5349" fill="black"/>
<ellipse cx="1729.58" cy="14.5349" rx="14.5349" ry="14.5349" fill="black"/>
<ellipse cx="1671.44" cy="14.5349" rx="14.5349" ry="14.5349" fill="black"/>
<ellipse cx="1729.58" cy="102.907" rx="14.5349" ry="14.5349" fill="black"/>
<ellipse cx="1729.58" cy="191.279" rx="14.5349" ry="14.5349" fill="black"/>
<ellipse cx="1671.44" cy="102.907" rx="14.5349" ry="14.5349" fill="black"/>
<ellipse cx="1671.44" cy="191.279" rx="14.5349" ry="14.5349" fill="black"/>
<ellipse cx="1758.65" cy="58.7207" rx="14.5349" ry="14.5349" fill="black"/>
<ellipse cx="1758.65" cy="147.093" rx="14.5349" ry="14.5349" fill="black"/>
<ellipse cx="1758.65" cy="235.465" rx="14.5349" ry="14.5349" fill="black"/>
<ellipse cx="1700.51" cy="58.7207" rx="14.5349" ry="14.5349" fill="black"/>
<ellipse cx="1700.51" cy="147.093" rx="14.5349" ry="14.5349" fill="black"/>
<ellipse cx="1700.51" cy="235.465" rx="14.5349" ry="14.5349" fill="black"/>
<ellipse cx="1816.79" cy="58.7207" rx="14.5349" ry="14.5349" fill="black"/>
<ellipse cx="1874.93" cy="58.7207" rx="14.5349" ry="14.5349" fill="black"/>
<ellipse cx="1816.79" cy="147.093" rx="14.5349" ry="14.5349" fill="black"/>
<ellipse cx="1816.79" cy="235.465" rx="14.5349" ry="14.5349" fill="black"/>
<ellipse cx="1874.93" cy="147.093" rx="14.5349" ry="14.5349" fill="black"/>
<ellipse cx="1874.93" cy="235.465" rx="14.5349" ry="14.5349" fill="black"/>
</svg>
