<svg width="1920" height="250" viewBox="0 0 1920 250" fill="none" xmlns="http://www.w3.org/2000/svg">
<rect width="1920" height="250" fill="black"/>
<path class="eat" d="M100.68 197.08C101.347 195.667 102.333 194.6 103.64 193.88C104.973 193.16 106.613 192.8 108.56 192.8V195.56L107.88 195.52C105.667 195.52 103.933 196.2 102.68 197.56C101.427 198.92 100.8 200.827 100.8 203.28V214H97.96V192.96H100.68V197.08ZM131.827 204.36H114.227C114.387 206.547 115.227 208.32 116.747 209.68C118.267 211.013 120.187 211.68 122.507 211.68C123.814 211.68 125.014 211.453 126.107 211C127.2 210.52 128.147 209.827 128.947 208.92L130.547 210.76C129.614 211.88 128.44 212.733 127.027 213.32C125.64 213.907 124.107 214.2 122.427 214.2C120.267 214.2 118.347 213.747 116.667 212.84C115.014 211.907 113.72 210.627 112.787 209C111.854 207.373 111.387 205.533 111.387 203.48C111.387 201.427 111.827 199.587 112.707 197.96C113.614 196.333 114.84 195.067 116.387 194.16C117.96 193.253 119.72 192.8 121.667 192.8C123.614 192.8 125.36 193.253 126.907 194.16C128.454 195.067 129.667 196.333 130.547 197.96C131.427 199.56 131.867 201.4 131.867 203.48L131.827 204.36ZM121.667 195.24C119.64 195.24 117.934 195.893 116.547 197.2C115.187 198.48 114.414 200.16 114.227 202.24H129.147C128.96 200.16 128.174 198.48 126.787 197.2C125.427 195.893 123.72 195.24 121.667 195.24ZM148.488 192.8C150.461 192.8 152.248 193.253 153.848 194.16C155.448 195.04 156.701 196.293 157.608 197.92C158.514 199.547 158.968 201.4 158.968 203.48C158.968 205.587 158.514 207.453 157.608 209.08C156.701 210.707 155.448 211.973 153.848 212.88C152.274 213.76 150.488 214.2 148.488 214.2C146.781 214.2 145.234 213.853 143.848 213.16C142.488 212.44 141.368 211.4 140.488 210.04V221.76H137.648V192.96H140.368V197.12C141.221 195.733 142.341 194.667 143.728 193.92C145.141 193.173 146.728 192.8 148.488 192.8ZM148.288 211.68C149.754 211.68 151.088 211.347 152.288 210.68C153.488 209.987 154.421 209.013 155.088 207.76C155.781 206.507 156.128 205.08 156.128 203.48C156.128 201.88 155.781 200.467 155.088 199.24C154.421 197.987 153.488 197.013 152.288 196.32C151.088 195.627 149.754 195.28 148.288 195.28C146.794 195.28 145.448 195.627 144.247 196.32C143.074 197.013 142.141 197.987 141.448 199.24C140.781 200.467 140.448 201.88 140.448 203.48C140.448 205.08 140.781 206.507 141.448 207.76C142.141 209.013 143.074 209.987 144.247 210.68C145.448 211.347 146.794 211.68 148.288 211.68ZM183.077 204.36H165.477C165.637 206.547 166.477 208.32 167.997 209.68C169.517 211.013 171.437 211.68 173.757 211.68C175.064 211.68 176.264 211.453 177.357 211C178.45 210.52 179.397 209.827 180.197 208.92L181.797 210.76C180.864 211.88 179.69 212.733 178.277 213.32C176.89 213.907 175.357 214.2 173.677 214.2C171.517 214.2 169.597 213.747 167.917 212.84C166.264 211.907 164.97 210.627 164.037 209C163.104 207.373 162.637 205.533 162.637 203.48C162.637 201.427 163.077 199.587 163.957 197.96C164.864 196.333 166.09 195.067 167.637 194.16C169.21 193.253 170.97 192.8 172.917 192.8C174.864 192.8 176.61 193.253 178.157 194.16C179.704 195.067 180.917 196.333 181.797 197.96C182.677 199.56 183.117 201.4 183.117 203.48L183.077 204.36ZM172.917 195.24C170.89 195.24 169.184 195.893 167.797 197.2C166.437 198.48 165.664 200.16 165.477 202.24H180.397C180.21 200.16 179.424 198.48 178.037 197.2C176.677 195.893 174.97 195.24 172.917 195.24ZM195.672 192.8C198.418 192.8 200.525 193.493 201.992 194.88C203.458 196.24 204.192 198.267 204.192 200.96V214H201.472V210.72C200.832 211.813 199.885 212.667 198.632 213.28C197.405 213.893 195.938 214.2 194.232 214.2C191.885 214.2 190.018 213.64 188.632 212.52C187.245 211.4 186.552 209.92 186.552 208.08C186.552 206.293 187.192 204.853 188.472 203.76C189.778 202.667 191.845 202.12 194.672 202.12H201.352V200.84C201.352 199.027 200.845 197.653 199.832 196.72C198.818 195.76 197.338 195.28 195.392 195.28C194.058 195.28 192.778 195.507 191.552 195.96C190.325 196.387 189.272 196.987 188.392 197.76L187.112 195.64C188.178 194.733 189.458 194.04 190.952 193.56C192.445 193.053 194.018 192.8 195.672 192.8ZM194.672 211.96C196.272 211.96 197.645 211.6 198.792 210.88C199.938 210.133 200.792 209.067 201.352 207.68V204.24H194.752C191.152 204.24 189.352 205.493 189.352 208C189.352 209.227 189.818 210.2 190.752 210.92C191.685 211.613 192.992 211.96 194.672 211.96ZM222.985 212.72C222.452 213.2 221.785 213.573 220.985 213.84C220.212 214.08 219.399 214.2 218.545 214.2C216.572 214.2 215.052 213.667 213.985 212.6C212.919 211.533 212.385 210.027 212.385 208.08V195.36H208.625V192.96H212.385V188.36H215.225V192.96H221.625V195.36H215.225V207.92C215.225 209.173 215.532 210.133 216.145 210.8C216.785 211.44 217.692 211.76 218.865 211.76C219.452 211.76 220.012 211.667 220.545 211.48C221.105 211.293 221.585 211.027 221.985 210.68L222.985 212.72ZM228.826 214.2C228.239 214.2 227.733 213.987 227.306 213.56C226.906 213.133 226.706 212.613 226.706 212C226.706 211.387 226.906 210.88 227.306 210.48C227.733 210.053 228.239 209.84 228.826 209.84C229.413 209.84 229.919 210.053 230.346 210.48C230.773 210.88 230.986 211.387 230.986 212C230.986 212.613 230.773 213.133 230.346 213.56C229.919 213.987 229.413 214.2 228.826 214.2Z" fill="white"/>
<path id="sleep" d="M106.68 164.2C104.6 164.2 102.733 163.747 101.08 162.84C99.4533 161.933 98.1733 160.667 97.24 159.04C96.3067 157.387 95.84 155.533 95.84 153.48C95.84 151.427 96.3067 149.587 97.24 147.96C98.1733 146.333 99.4533 145.067 101.08 144.16C102.733 143.253 104.6 142.8 106.68 142.8C108.493 142.8 110.107 143.16 111.52 143.88C112.96 144.573 114.093 145.6 114.92 146.96L112.8 148.4C112.107 147.36 111.227 146.587 110.16 146.08C109.093 145.547 107.933 145.28 106.68 145.28C105.16 145.28 103.787 145.627 102.56 146.32C101.36 146.987 100.413 147.947 99.72 149.2C99.0533 150.453 98.72 151.88 98.72 153.48C98.72 155.107 99.0533 156.547 99.72 157.8C100.413 159.027 101.36 159.987 102.56 160.68C103.787 161.347 105.16 161.68 106.68 161.68C107.933 161.68 109.093 161.427 110.16 160.92C111.227 160.413 112.107 159.64 112.8 158.6L114.92 160.04C114.093 161.4 112.96 162.44 111.52 163.16C110.08 163.853 108.467 164.2 106.68 164.2ZM128.748 164.2C126.721 164.2 124.894 163.747 123.268 162.84C121.641 161.907 120.361 160.627 119.428 159C118.494 157.373 118.028 155.533 118.028 153.48C118.028 151.427 118.494 149.587 119.428 147.96C120.361 146.333 121.641 145.067 123.268 144.16C124.894 143.253 126.721 142.8 128.748 142.8C130.774 142.8 132.601 143.253 134.228 144.16C135.854 145.067 137.121 146.333 138.028 147.96C138.961 149.587 139.428 151.427 139.428 153.48C139.428 155.533 138.961 157.373 138.028 159C137.121 160.627 135.854 161.907 134.228 162.84C132.601 163.747 130.774 164.2 128.748 164.2ZM128.748 161.68C130.241 161.68 131.574 161.347 132.748 160.68C133.948 159.987 134.881 159.013 135.548 157.76C136.214 156.507 136.548 155.08 136.548 153.48C136.548 151.88 136.214 150.453 135.548 149.2C134.881 147.947 133.948 146.987 132.748 146.32C131.574 145.627 130.241 145.28 128.748 145.28C127.254 145.28 125.908 145.627 124.708 146.32C123.534 146.987 122.601 147.947 121.908 149.2C121.241 150.453 120.908 151.88 120.908 153.48C120.908 155.08 121.241 156.507 121.908 157.76C122.601 159.013 123.534 159.987 124.708 160.68C125.908 161.347 127.254 161.68 128.748 161.68ZM164.426 134.32V164H161.706V159.84C160.852 161.253 159.719 162.333 158.306 163.08C156.919 163.827 155.346 164.2 153.586 164.2C151.612 164.2 149.826 163.747 148.226 162.84C146.626 161.933 145.372 160.667 144.466 159.04C143.559 157.413 143.106 155.56 143.106 153.48C143.106 151.4 143.559 149.547 144.466 147.92C145.372 146.293 146.626 145.04 148.226 144.16C149.826 143.253 151.612 142.8 153.586 142.8C155.292 142.8 156.826 143.16 158.186 143.88C159.572 144.573 160.706 145.6 161.586 146.96V134.32H164.426ZM153.826 161.68C155.292 161.68 156.612 161.347 157.786 160.68C158.986 159.987 159.919 159.013 160.586 157.76C161.279 156.507 161.626 155.08 161.626 153.48C161.626 151.88 161.279 150.453 160.586 149.2C159.919 147.947 158.986 146.987 157.786 146.32C156.612 145.627 155.292 145.28 153.826 145.28C152.332 145.28 150.986 145.627 149.786 146.32C148.612 146.987 147.679 147.947 146.986 149.2C146.319 150.453 145.986 151.88 145.986 153.48C145.986 155.08 146.319 156.507 146.986 157.76C147.679 159.013 148.612 159.987 149.786 160.68C150.986 161.347 152.332 161.68 153.826 161.68ZM190.655 154.36H173.055C173.215 156.547 174.055 158.32 175.575 159.68C177.095 161.013 179.015 161.68 181.335 161.68C182.642 161.68 183.842 161.453 184.935 161C186.028 160.52 186.975 159.827 187.775 158.92L189.375 160.76C188.442 161.88 187.268 162.733 185.855 163.32C184.468 163.907 182.935 164.2 181.255 164.2C179.095 164.2 177.175 163.747 175.495 162.84C173.842 161.907 172.548 160.627 171.615 159C170.682 157.373 170.215 155.533 170.215 153.48C170.215 151.427 170.655 149.587 171.535 147.96C172.442 146.333 173.668 145.067 175.215 144.16C176.788 143.253 178.548 142.8 180.495 142.8C182.442 142.8 184.188 143.253 185.735 144.16C187.282 145.067 188.495 146.333 189.375 147.96C190.255 149.56 190.695 151.4 190.695 153.48L190.655 154.36ZM180.495 145.24C178.468 145.24 176.762 145.893 175.375 147.2C174.015 148.48 173.242 150.16 173.055 152.24H187.975C187.788 150.16 187.002 148.48 185.615 147.2C184.255 145.893 182.548 145.24 180.495 145.24ZM196.756 164.2C196.169 164.2 195.662 163.987 195.236 163.56C194.836 163.133 194.636 162.613 194.636 162C194.636 161.387 194.836 160.88 195.236 160.48C195.662 160.053 196.169 159.84 196.756 159.84C197.342 159.84 197.849 160.053 198.276 160.48C198.702 160.88 198.916 161.387 198.916 162C198.916 162.613 198.702 163.133 198.276 163.56C197.849 163.987 197.342 164.2 196.756 164.2Z" fill="white"/>
<path id="code" d="M103.6 114.2C101.893 114.2 100.253 113.96 98.68 113.48C97.1333 112.973 95.92 112.347 95.04 111.6L96.32 109.36C97.2 110.053 98.3067 110.627 99.64 111.08C100.973 111.507 102.36 111.72 103.8 111.72C105.72 111.72 107.133 111.427 108.04 110.84C108.973 110.227 109.44 109.373 109.44 108.28C109.44 107.507 109.187 106.907 108.68 106.48C108.173 106.027 107.533 105.693 106.76 105.48C105.987 105.24 104.96 105.013 103.68 104.8C101.973 104.48 100.6 104.16 99.56 103.84C98.52 103.493 97.6267 102.92 96.88 102.12C96.16 101.32 95.8 100.213 95.8 98.8C95.8 97.04 96.5333 95.6 98 94.48C99.4667 93.36 101.507 92.8 104.12 92.8C105.48 92.8 106.84 92.9867 108.2 93.36C109.56 93.7067 110.68 94.1733 111.56 94.76L110.32 97.04C108.587 95.84 106.52 95.24 104.12 95.24C102.307 95.24 100.933 95.56 100 96.2C99.0933 96.84 98.64 97.68 98.64 98.72C98.64 99.52 98.8933 100.16 99.4 100.64C99.9333 101.12 100.587 101.48 101.36 101.72C102.133 101.933 103.2 102.16 104.56 102.4C106.24 102.72 107.587 103.04 108.6 103.36C109.613 103.68 110.48 104.227 111.2 105C111.92 105.773 112.28 106.84 112.28 108.2C112.28 110.04 111.507 111.507 109.96 112.6C108.44 113.667 106.32 114.2 103.6 114.2ZM117.53 84.32H120.37V114H117.53V84.32ZM146.593 104.36H128.993C129.153 106.547 129.993 108.32 131.513 109.68C133.033 111.013 134.953 111.68 137.273 111.68C138.579 111.68 139.779 111.453 140.873 111C141.966 110.52 142.913 109.827 143.713 108.92L145.313 110.76C144.379 111.88 143.206 112.733 141.793 113.32C140.406 113.907 138.873 114.2 137.193 114.2C135.033 114.2 133.113 113.747 131.433 112.84C129.779 111.907 128.486 110.627 127.553 109C126.619 107.373 126.153 105.533 126.153 103.48C126.153 101.427 126.593 99.5867 127.473 97.96C128.379 96.3333 129.606 95.0667 131.153 94.16C132.726 93.2533 134.486 92.8 136.433 92.8C138.379 92.8 140.126 93.2533 141.673 94.16C143.219 95.0667 144.433 96.3333 145.313 97.96C146.193 99.56 146.633 101.4 146.633 103.48L146.593 104.36ZM136.433 95.24C134.406 95.24 132.699 95.8933 131.313 97.2C129.953 98.48 129.179 100.16 128.993 102.24H143.913C143.726 100.16 142.939 98.48 141.553 97.2C140.193 95.8933 138.486 95.24 136.433 95.24ZM170.733 104.36H153.133C153.293 106.547 154.133 108.32 155.653 109.68C157.173 111.013 159.093 111.68 161.413 111.68C162.72 111.68 163.92 111.453 165.013 111C166.106 110.52 167.053 109.827 167.853 108.92L169.453 110.76C168.52 111.88 167.346 112.733 165.933 113.32C164.546 113.907 163.013 114.2 161.333 114.2C159.173 114.2 157.253 113.747 155.573 112.84C153.92 111.907 152.626 110.627 151.693 109C150.76 107.373 150.293 105.533 150.293 103.48C150.293 101.427 150.733 99.5867 151.613 97.96C152.52 96.3333 153.746 95.0667 155.293 94.16C156.866 93.2533 158.626 92.8 160.573 92.8C162.52 92.8 164.266 93.2533 165.813 94.16C167.36 95.0667 168.573 96.3333 169.453 97.96C170.333 99.56 170.773 101.4 170.773 103.48L170.733 104.36ZM160.573 95.24C158.546 95.24 156.84 95.8933 155.453 97.2C154.093 98.48 153.32 100.16 153.133 102.24H168.053C167.866 100.16 167.08 98.48 165.693 97.2C164.333 95.8933 162.626 95.24 160.573 95.24ZM187.394 92.8C189.367 92.8 191.154 93.2533 192.754 94.16C194.354 95.04 195.607 96.2933 196.514 97.92C197.42 99.5467 197.874 101.4 197.874 103.48C197.874 105.587 197.42 107.453 196.514 109.08C195.607 110.707 194.354 111.973 192.754 112.88C191.18 113.76 189.394 114.2 187.394 114.2C185.687 114.2 184.14 113.853 182.754 113.16C181.394 112.44 180.274 111.4 179.394 110.04V121.76H176.554V92.96H179.274V97.12C180.127 95.7333 181.247 94.6667 182.634 93.92C184.047 93.1733 185.634 92.8 187.394 92.8ZM187.194 111.68C188.66 111.68 189.994 111.347 191.194 110.68C192.394 109.987 193.327 109.013 193.994 107.76C194.687 106.507 195.034 105.08 195.034 103.48C195.034 101.88 194.687 100.467 193.994 99.24C193.327 97.9867 192.394 97.0133 191.194 96.32C189.994 95.6267 188.66 95.28 187.194 95.28C185.7 95.28 184.354 95.6267 183.154 96.32C181.98 97.0133 181.047 97.9867 180.354 99.24C179.687 100.467 179.354 101.88 179.354 103.48C179.354 105.08 179.687 106.507 180.354 107.76C181.047 109.013 181.98 109.987 183.154 110.68C184.354 111.347 185.7 111.68 187.194 111.68ZM203.357 114.2C202.771 114.2 202.264 113.987 201.837 113.56C201.437 113.133 201.237 112.613 201.237 112C201.237 111.387 201.437 110.88 201.837 110.48C202.264 110.053 202.771 109.84 203.357 109.84C203.944 109.84 204.451 110.053 204.877 110.48C205.304 110.88 205.517 111.387 205.517 112C205.517 112.613 205.304 113.133 204.877 113.56C204.451 113.987 203.944 114.2 203.357 114.2Z" fill="white"/>
<path id="repeat" d="M116.28 53.36H98.68C98.84 55.5467 99.68 57.32 101.2 58.68C102.72 60.0133 104.64 60.68 106.96 60.68C108.267 60.68 109.467 60.4533 110.56 60C111.653 59.52 112.6 58.8267 113.4 57.92L115 59.76C114.067 60.88 112.893 61.7333 111.48 62.32C110.093 62.9067 108.56 63.2 106.88 63.2C104.72 63.2 102.8 62.7467 101.12 61.84C99.4667 60.9067 98.1733 59.6267 97.24 58C96.3067 56.3733 95.84 54.5333 95.84 52.48C95.84 50.4267 96.28 48.5867 97.16 46.96C98.0667 45.3333 99.2933 44.0667 100.84 43.16C102.413 42.2533 104.173 41.8 106.12 41.8C108.067 41.8 109.813 42.2533 111.36 43.16C112.907 44.0667 114.12 45.3333 115 46.96C115.88 48.56 116.32 50.4 116.32 52.48L116.28 53.36ZM106.12 44.24C104.093 44.24 102.387 44.8933 101 46.2C99.64 47.48 98.8667 49.16 98.68 51.24H113.6C113.413 49.16 112.627 47.48 111.24 46.2C109.88 44.8933 108.173 44.24 106.12 44.24ZM128.875 41.8C131.621 41.8 133.728 42.4933 135.195 43.88C136.661 45.24 137.395 47.2667 137.395 49.96V63H134.675V59.72C134.035 60.8133 133.088 61.6667 131.835 62.28C130.608 62.8933 129.141 63.2 127.435 63.2C125.088 63.2 123.221 62.64 121.835 61.52C120.448 60.4 119.755 58.92 119.755 57.08C119.755 55.2933 120.395 53.8533 121.675 52.76C122.981 51.6667 125.048 51.12 127.875 51.12H134.555V49.84C134.555 48.0267 134.048 46.6533 133.035 45.72C132.021 44.76 130.541 44.28 128.595 44.28C127.261 44.28 125.981 44.5067 124.755 44.96C123.528 45.3867 122.475 45.9867 121.595 46.76L120.315 44.64C121.381 43.7333 122.661 43.04 124.155 42.56C125.648 42.0533 127.221 41.8 128.875 41.8ZM127.875 60.96C129.475 60.96 130.848 60.6 131.995 59.88C133.141 59.1333 133.995 58.0667 134.555 56.68V53.24H127.955C124.355 53.24 122.555 54.4933 122.555 57C122.555 58.2267 123.021 59.2 123.955 59.92C124.888 60.6133 126.195 60.96 127.875 60.96ZM156.188 61.72C155.655 62.2 154.988 62.5733 154.188 62.84C153.415 63.08 152.602 63.2 151.748 63.2C149.775 63.2 148.255 62.6667 147.188 61.6C146.122 60.5333 145.588 59.0267 145.588 57.08V44.36H141.828V41.96H145.588V37.36H148.428V41.96H154.828V44.36H148.428V56.92C148.428 58.1733 148.735 59.1333 149.348 59.8C149.988 60.44 150.895 60.76 152.068 60.76C152.655 60.76 153.215 60.6667 153.748 60.48C154.308 60.2933 154.788 60.0267 155.188 59.68L156.188 61.72ZM162.029 63.2C161.442 63.2 160.936 62.9867 160.509 62.56C160.109 62.1333 159.909 61.6133 159.909 61C159.909 60.3867 160.109 59.88 160.509 59.48C160.936 59.0533 161.442 58.84 162.029 58.84C162.616 58.84 163.122 59.0533 163.549 59.48C163.976 59.88 164.189 60.3867 164.189 61C164.189 61.6133 163.976 62.1333 163.549 62.56C163.122 62.9867 162.616 63.2 162.029 63.2Z" fill="white"/>
</svg>
